<?xml version="1.0" standalone="no"?>
<!DOCTYPE svg PUBLIC "-//W3C//DTD SVG 20010904//EN"
 "http://www.w3.org/TR/2001/REC-SVG-20010904/DTD/svg10.dtd">
<svg version="1.0" xmlns="http://www.w3.org/2000/svg"
 width="225.000000pt" height="161.000000pt" viewBox="0 0 225.000000 161.000000"
 preserveAspectRatio="xMidYMid meet">

<g transform="translate(0.000000,161.000000) scale(0.100000,-0.100000)"
fill="#000000" stroke="none">
<path d="M1275 1526 c-97 -31 -180 -91 -236 -173 -16 -23 -44 -86 -61 -138
-30 -94 -31 -96 -52 -80 -11 9 -46 28 -76 43 l-55 27 -362 3 c-261 3 -363 0
-363 -8 0 -27 52 -109 97 -151 101 -98 177 -118 445 -119 170 0 205 -3 248
-19 93 -36 160 -105 189 -198 14 -41 11 -176 -3 -190 -4 -4 -27 -1 -52 5 -26
7 -72 15 -103 18 l-57 6 -68 -228 c-38 -126 -72 -244 -76 -261 l-8 -33 137 0
c177 0 226 14 291 80 54 56 49 43 136 313 36 114 75 219 86 233 39 48 72 58
229 64 140 5 148 7 194 35 26 17 61 46 76 65 26 32 79 158 79 187 0 20 -568
18 -633 -2 l-47 -14 6 27 c28 114 87 200 150 217 16 4 144 11 284 14 l255 6
58 29 c71 36 145 113 180 188 15 31 27 59 27 62 0 3 -197 6 -437 5 -325 0
-448 -4 -478 -13z"/>
<path d="M260 875 c0 -3 11 -27 24 -53 41 -80 91 -128 173 -169 l77 -38 200
-7 c111 -3 216 -10 234 -13 l32 -7 0 49 c0 67 -42 149 -95 186 -71 49 -125 57
-397 57 -137 0 -248 -2 -248 -5z"/>
</g>
</svg>
