<?xml version="1.0" encoding="UTF-8"?>
<svg version="1.1" xmlns="http://www.w3.org/2000/svg" width="225" height="161">
<path d="M0 0 C1.28834747 0.01441132 1.28834747 0.01441132 2.60272217 0.02911377 C5.43803211 0.06206079 8.2731859 0.10240954 11.10839844 0.14282227 C13.07565767 0.16712758 15.04292266 0.19097093 17.01019287 0.21437073 C22.18549157 0.27717071 27.3606882 0.34624899 32.53588867 0.41662598 C37.81782385 0.48734628 43.09983134 0.55214113 48.38183594 0.61743164 C58.74389457 0.74639134 69.10585506 0.88198241 79.46777344 1.02172852 C77.47058565 11.88874634 70.89716078 20.48986836 61.97949219 26.77563477 C53.92153328 31.8500702 47.29817112 33.32904696 37.91308594 33.14672852 C37.01210175 33.13915527 36.11111755 33.13158203 35.18283081 33.1237793 C31.35716835 33.09132721 27.53194675 33.03507491 23.70654297 32.98071289 C20.90041118 32.94430073 18.09435069 32.92026665 15.28808594 32.89672852 C14.01265427 32.8718335 14.01265427 32.8718335 12.7114563 32.84643555 C5.88836611 32.79130286 -0.74295093 33.16221143 -6.53222656 37.02172852 C-7.52222656 37.02172852 -8.51222656 37.02172852 -9.53222656 37.02172852 C-9.53222656 37.68172852 -9.53222656 38.34172852 -9.53222656 39.02172852 C-10.19222656 39.02172852 -10.85222656 39.02172852 -11.53222656 39.02172852 C-11.65597656 39.57860352 -11.77972656 40.13547852 -11.90722656 40.70922852 C-12.53222656 43.02172852 -12.53222656 43.02172852 -13.53222656 45.45922852 C-14.515903 47.97989939 -15.07602645 50.36056121 -15.53222656 53.02172852 C-14.54222656 53.02172852 -13.55222656 53.02172852 -12.53222656 53.02172852 C8.46777344 53.02172852 29.46777344 53.02172852 50.46777344 53.02172852 C51.44752411 57.27906239 51.36560869 59.04531179 49.46777344 63.02172852 C49.20996094 63.69333008 48.95214844 64.36493164 48.68652344 65.05688477 C46.36100009 70.90076455 43.28032666 75.88462136 38.46777344 80.02172852 C37.1427227 80.38659756 35.80994733 80.72599529 34.46777344 81.02172852 C34.13777344 81.68172852 33.80777344 82.34172852 33.46777344 83.02172852 C28.60800215 85.31662051 23.94263512 86.16028993 18.59667969 86.08422852 C17.69240234 86.07649414 16.788125 86.06875977 15.85644531 86.06079102 C13.97623623 86.03480333 12.09602789 86.00876189 10.21582031 85.98266602 C5.50578819 85.94243798 1.10170664 86.03150573 -3.53222656 87.02172852 C-3.53222656 87.68172852 -3.53222656 88.34172852 -3.53222656 89.02172852 C-4.31090088 89.60092041 -5.0895752 90.1801123 -5.8918457 90.77685547 C-8.98342424 93.40534041 -9.62565635 95.09144503 -10.77832031 98.93969727 C-11.31730957 100.68621582 -11.31730957 100.68621582 -11.8671875 102.46801758 C-12.23102539 103.70261719 -12.59486328 104.9372168 -12.96972656 106.20922852 C-13.75337169 108.75005965 -14.5385249 111.29042616 -15.32519531 113.83032227 C-15.70208496 115.06379395 -16.07897461 116.29726562 -16.46728516 117.56811523 C-24.75331275 144.43976729 -24.75331275 144.43976729 -34.53222656 151.02172852 C-37.47916445 152.24876363 -40.45162615 153.19276695 -43.53222656 154.02172852 C-44.11117676 154.19663818 -44.69012695 154.37154785 -45.28662109 154.55175781 C-48.10404651 155.14140164 -50.73174518 155.13349558 -53.61035156 155.11938477 C-54.77050781 155.11616211 -55.93066406 155.11293945 -57.12597656 155.10961914 C-58.33253906 155.10124023 -59.53910156 155.09286133 -60.78222656 155.08422852 C-62.00425781 155.0797168 -63.22628906 155.07520508 -64.48535156 155.07055664 C-67.50102602 155.05877666 -70.51660154 155.04232705 -73.53222656 155.02172852 C-74.36664503 151.05036894 -74.65155363 148.25294372 -73.42285156 144.37719727 C-73.03226563 143.11359375 -73.03226563 143.11359375 -72.63378906 141.82446289 C-72.35277344 140.96143555 -72.07175781 140.0984082 -71.78222656 139.20922852 C-71.51667969 138.35780273 -71.25113281 137.50637695 -70.97753906 136.62915039 C-69.70853154 132.58495895 -68.38118395 128.56196621 -67.02832031 124.54516602 C-65.35424531 119.54994222 -63.84516681 114.50885829 -62.34472656 109.45922852 C-62.07208984 108.54592773 -61.79945312 107.63262695 -61.51855469 106.69165039 C-60.85516725 104.46872056 -60.19307928 102.24541293 -59.53222656 100.02172852 C-54.79065265 98.60954378 -50.9338286 99.46922496 -46.21972656 100.45922852 C-45.47916016 100.60682617 -44.73859375 100.75442383 -43.97558594 100.90649414 C-42.15941013 101.2697293 -40.34556246 101.6445717 -38.53222656 102.02172852 C-37.52772871 98.67072368 -37.36673827 95.57528554 -37.34472656 92.08422852 C-37.33054687 91.06458008 -37.31636719 90.04493164 -37.30175781 88.99438477 C-37.53862807 85.93915997 -38.30705858 83.80620121 -39.53222656 81.02172852 C-39.53222656 80.36172852 -39.53222656 79.70172852 -39.53222656 79.02172852 C-40.19222656 79.02172852 -40.85222656 79.02172852 -41.53222656 79.02172852 C-45.53222656 73.60996381 -45.53222656 73.60996381 -45.53222656 71.02172852 C-46.43972656 70.75360352 -47.34722656 70.48547852 -48.28222656 70.20922852 C-51.53222656 69.02172852 -51.53222656 69.02172852 -53.46972656 67.45922852 C-58.44003742 63.99507247 -65.84411867 64.87582867 -71.72753906 64.84594727 C-73.51400902 64.82273655 -75.30046737 64.79861871 -77.08691406 64.77368164 C-79.86433574 64.73875627 -82.64133187 64.7093058 -85.41894531 64.69580078 C-99.84253066 64.61221189 -113.32353023 64.31492427 -124.53222656 54.02172852 C-125.14710937 53.48547852 -125.76199219 52.94922852 -126.39550781 52.39672852 C-130.74999918 48.36859089 -134.60436472 43.70490457 -136.53222656 38.02172852 C-136.20222656 36.37172852 -135.87222656 34.72172852 -135.53222656 33.02172852 C-112.76222656 33.02172852 -89.99222656 33.02172852 -66.53222656 33.02172852 C-66.53222656 33.68172852 -66.53222656 34.34172852 -66.53222656 35.02172852 C-66.01660156 34.81547852 -65.50097656 34.60922852 -64.96972656 34.39672852 C-61.49956985 33.86285825 -58.82586865 34.94496091 -55.53222656 36.02172852 C-55.53222656 36.68172852 -55.53222656 37.34172852 -55.53222656 38.02172852 C-54.41847656 38.20735352 -54.41847656 38.20735352 -53.28222656 38.39672852 C-50.71774114 38.97956611 -48.84056144 39.808373 -46.53222656 41.02172852 C-46.36207031 40.25989258 -46.19191406 39.49805664 -46.01660156 38.71313477 C-42.04298006 21.78297081 -42.04298006 21.78297081 -36.53222656 16.02172852 C-35.87222656 16.02172852 -35.21222656 16.02172852 -34.53222656 16.02172852 C-33.87222656 14.70172852 -33.21222656 13.38172852 -32.53222656 12.02172852 C-31.87222656 12.02172852 -31.21222656 12.02172852 -30.53222656 12.02172852 C-30.20222656 11.03172852 -29.87222656 10.04172852 -29.53222656 9.02172852 C-20.68914355 2.67483305 -10.73442614 -0.1718872 0 0 Z " fill="#0C1D33" transform="translate(141.5322265625,4.978271484375)"/>
<path d="M0 0 C1.40526947 -0.01210762 1.40526947 -0.01210762 2.83892822 -0.02445984 C4.8121968 -0.03821924 6.78548836 -0.04897736 8.75878906 -0.05688477 C10.75625698 -0.06839989 12.75369424 -0.08884424 14.75097656 -0.1184082 C42.07883097 -0.52187949 42.07883097 -0.52187949 51.078125 8.11328125 C55.32454579 12.24451884 57.88350671 16.38900341 59.015625 22.23828125 C59.20125 23.14578125 59.386875 24.05328125 59.578125 24.98828125 C59.7946875 26.10203125 59.7946875 26.10203125 60.015625 27.23828125 C59.355625 27.23828125 58.695625 27.23828125 58.015625 27.23828125 C58.015625 29.21828125 58.015625 31.19828125 58.015625 33.23828125 C52.265625 33.36328125 52.265625 33.36328125 50.015625 32.23828125 C47.55093446 31.99541028 45.11172108 31.81202937 42.640625 31.67578125 C41.52506226 31.60883057 41.52506226 31.60883057 40.38696289 31.54052734 C36.15854478 31.31390338 31.9569896 31.22145839 27.72265625 31.28125 C26.84464355 31.29293213 25.96663086 31.30461426 25.06201172 31.31665039 C23.36410181 31.34699858 21.66636317 31.39104295 19.96923828 31.45092773 C14.25334723 31.55871977 10.26281872 30.52867851 5.015625 28.23828125 C4.2525 27.92503906 3.489375 27.61179687 2.703125 27.2890625 C1.140625 26.60546875 -0.421875 25.921875 -1.984375 25.23828125 C-1.984375 24.57828125 -1.984375 23.91828125 -1.984375 23.23828125 C-2.56316406 23.15449219 -3.14195313 23.07070312 -3.73828125 22.984375 C-9.96568357 20.9157944 -14.16779642 13.33375908 -17.046875 7.80078125 C-18.26953125 5.3046875 -18.26953125 5.3046875 -18.984375 3.23828125 C-18.654375 2.57828125 -18.324375 1.91828125 -17.984375 1.23828125 C-12.00573195 0.1774584 -6.06028916 0.05066935 0 0 Z " fill="#0A1A30" transform="translate(42.984375,70.76171875)"/>
<path d="M0 0 C1.24445641 0.01441132 1.24445641 0.01441132 2.51405334 0.02911377 C5.25196962 0.06205308 7.98972381 0.10240472 10.72753906 0.14282227 C12.62753735 0.16712833 14.5275416 0.19097165 16.42755127 0.21437073 C21.4253012 0.2771632 26.42294523 0.34624359 31.42059326 0.41662598 C36.52155744 0.48735308 41.62259663 0.55214386 46.72363281 0.61743164 C56.73022566 0.74638165 66.7367167 0.8819734 76.74316406 1.02172852 C76.74316406 1.35172852 76.74316406 1.68172852 76.74316406 2.02172852 C46.71316406 2.35172852 16.68316406 2.68172852 -14.25683594 3.02172852 C-10.31824238 -0.91686504 -5.26579195 -0.0873504 0 0 Z " fill="#343E49" transform="translate(141.2568359375,4.978271484375)"/>
<path d="M0 0 C0.495 1.485 0.495 1.485 1 3 C-4.59501163 3.95395773 -9.98335664 4.13165114 -15.65234375 4.09765625 C-16.55247696 4.0962413 -17.45261017 4.09482635 -18.38002014 4.09336853 C-21.23254837 4.0878066 -24.08499581 4.07526127 -26.9375 4.0625 C-28.88085824 4.05748008 -30.82421771 4.05291803 -32.76757812 4.04882812 C-37.5117495 4.03784966 -42.25586109 4.02061153 -47 4 C-47.33 3.34 -47.66 2.68 -48 2 C-41.64641625 1.83179545 -35.2926626 1.67190113 -28.9387207 1.51782227 C-26.77656299 1.46440559 -24.61445166 1.40907649 -22.45239258 1.35180664 C-19.3472697 1.26988667 -16.24204578 1.19481337 -13.13671875 1.12109375 C-11.68346443 1.08054115 -11.68346443 1.08054115 -10.20085144 1.03916931 C-8.84979057 1.00902489 -8.84979057 1.00902489 -7.47143555 0.97827148 C-6.28229805 0.94829323 -6.28229805 0.94829323 -5.06913757 0.91770935 C-3 1 -3 1 0 2 C0 1.34 0 0.68 0 0 Z " fill="#3B4969" transform="translate(191,34)"/>
<path d="M0 0 C2.31 0 4.62 0 7 0 C7.75 2.25 7.75 2.25 8 5 C6.0625 7.3125 6.0625 7.3125 4 9 C3.67 8.01 3.34 7.02 3 6 C0.98491642 5.26676204 0.98491642 5.26676204 -1 5 C-1 4.34 -1 3.68 -1 3 C-1.99 2.67 -2.98 2.34 -4 2 C-2.68 2 -1.36 2 0 2 C0 1.34 0 0.68 0 0 Z " fill="#2E3C4B" transform="translate(185,58)"/>
<path d="M0 0 C0.66 0 1.32 0 2 0 C1.95875 1.11375 1.9175 2.2275 1.875 3.375 C1.58878141 7.04366025 1.58878141 7.04366025 4 9 C2.02 9.99 2.02 9.99 0 11 C0 12.32 0 13.64 0 15 C-1.32 15.33 -2.64 15.66 -4 16 C-2.68 10.72 -1.36 5.44 0 0 Z " fill="#15203A" transform="translate(79,114)"/>
<path d="M0 0 C1.32 0 2.64 0 4 0 C5.33257403 14.78132118 5.33257403 14.78132118 4 21 C3.67 21 3.34 21 3 21 C3.02320312 20.19175781 3.04640625 19.38351563 3.0703125 18.55078125 C3.08835937 17.48214844 3.10640625 16.41351563 3.125 15.3125 C3.14820312 14.25675781 3.17140625 13.20101562 3.1953125 12.11328125 C2.99765589 8.96263492 2.27168969 6.85879848 1 4 C1 3.34 1 2.68 1 2 C0.34 1.67 -0.32 1.34 -1 1 C-0.67 0.67 -0.34 0.34 0 0 Z " fill="#33455B" transform="translate(101,82)"/>
<path d="M0 0 C3.8063457 0.67170806 7.35206816 1.72746564 11 3 C10.34 4.98 9.68 6.96 9 9 C8.34 8.34 7.68 7.68 7 7 C6.01 7 5.02 7 4 7 C3.34 5.68 2.68 4.36 2 3 C1.01 3.495 1.01 3.495 0 4 C0 2.68 0 1.36 0 0 Z M6 3 C6.33 3.66 6.66 4.32 7 5 C7.33 4.34 7.66 3.68 8 3 C7.34 3 6.68 3 6 3 Z " fill="#06172D" transform="translate(83,104)"/>
<path d="M0 0 C1.16015625 0.04833984 2.3203125 0.09667969 3.515625 0.14648438 C4.7221875 0.20255859 5.92875 0.25863281 7.171875 0.31640625 C8.39390625 0.36861328 9.6159375 0.42082031 10.875 0.47460938 C13.89088981 0.60419839 16.90644146 0.73916201 19.921875 0.87890625 C19.921875 1.20890625 19.921875 1.53890625 19.921875 1.87890625 C4.081875 2.37390625 4.081875 2.37390625 -12.078125 2.87890625 C-8.51057202 -0.68864673 -4.84996139 -0.21396888 0 0 Z " fill="#36404C" transform="translate(139.078125,5.12109375)"/>
<path d="M0 0 C2.0625 2.25 2.0625 2.25 4 5 C3.67 6.32 3.34 7.64 3 9 C-1.455 9.495 -1.455 9.495 -6 10 C-5.67 9.34 -5.34 8.68 -5 8 C-4.01 8.33 -3.02 8.66 -2 9 C-1.34 6.03 -0.68 3.06 0 0 Z " fill="#2B3747" transform="translate(97,37)"/>
<path d="M0 0 C2.27521866 2.16687491 4.15794162 4.45620509 6 7 C5.01 7.495 5.01 7.495 4 8 C3.67 8.66 3.34 9.32 3 10 C-1.06153846 4.58461538 -1.06153846 4.58461538 -0.75 1.625 C-0.5025 1.08875 -0.255 0.5525 0 0 Z " fill="#2A374E" transform="translate(6,39)"/>
<path d="M0 0 C-0.55728913 3.34373475 -1.35173889 6.03312999 -3 9 C-3.66 9 -4.32 9 -5 9 C-4.814375 8.236875 -4.62875 7.47375 -4.4375 6.6875 C-3.77180827 3.91032625 -3.77180827 3.91032625 -5 1 C-3 0 -3 0 0 0 Z " fill="#242B37" transform="translate(221,6)"/>
<path d="M0 0 C1.65 0.33 3.3 0.66 5 1 C5 2.98 5 4.96 5 7 C4.67 6.34 4.34 5.68 4 5 C2.35 5.33 0.7 5.66 -1 6 C-0.67 4.02 -0.34 2.04 0 0 Z " fill="#25314A" transform="translate(82,105)"/>
<path d="M0 0 C-1.14018002 3.42054006 -1.92458518 4.2426201 -5 6 C-7.25 5.6875 -7.25 5.6875 -9 5 C-8.34 5 -7.68 5 -7 5 C-6.67 4.01 -6.34 3.02 -6 2 C-3 0 -3 0 0 0 Z " fill="#243342" transform="translate(118,12)"/>
<path d="M0 0 C0.66 0 1.32 0 2 0 C2 2.64 2 5.28 2 8 C0.68 8.33 -0.64 8.66 -2 9 C-1.34 6.03 -0.68 3.06 0 0 Z " fill="#394352" transform="translate(77,121)"/>
<path d="M0 0 C1.65 1.32 3.3 2.64 5 4 C2.00468461 4.99843846 0.82744268 5.00732761 -2.1875 4.5625 C-3.445625 4.376875 -4.70375 4.19125 -6 4 C-4.60804085 1.2160817 -2.84424221 1.02101003 0 0 Z " fill="#314A54" transform="translate(91,98)"/>
<path d="M0 0 C0.99 0 1.98 0 3 0 C3 0.99 3 1.98 3 3 C2.34 3.66 1.68 4.32 1 5 C1 5.99 1 6.98 1 8 C0.01 7.34 -0.98 6.68 -2 6 C-1.34 4.02 -0.68 2.04 0 0 Z " fill="#2A3648" transform="translate(70,146)"/>
<path d="M0 0 C-0.375 2.9375 -0.375 2.9375 -1 6 C-1.99 6.495 -1.99 6.495 -3 7 C-3.66 5.02 -4.32 3.04 -5 1 C-3 0 -3 0 0 0 Z " fill="#22384C" transform="translate(190,68)"/>
<path d="M0 0 C0.66 0 1.32 0 2 0 C3.06351675 3.38391693 3.21442982 4.5804634 1.5625 7.8125 C1.046875 8.534375 0.53125 9.25625 0 10 C-1.25257892 7.49484216 -1.13557273 5.77924105 -1 3 C-0.67 2.01 -0.34 1.02 0 0 Z " fill="#222B39" transform="translate(127,42)"/>
<path d="M0 0 C0.66 0.66 1.32 1.32 2 2 C1.625 5.625 1.625 5.625 1 9 C0.01 8.34 -0.98 7.68 -2 7 C-2 6.01 -2 5.02 -2 4 C-1.34 4 -0.68 4 0 4 C0 2.68 0 1.36 0 0 Z " fill="#24394C" transform="translate(123,117)"/>
<path d="M0 0 C2.1875 0.3125 2.1875 0.3125 4 1 C3.34 2.32 2.68 3.64 2 5 C0.35 5 -1.3 5 -3 5 C-3 3 -3 3 -1.75 1.3125 C-1.1725 0.879375 -0.595 0.44625 0 0 Z " fill="#021327" transform="translate(122,58)"/>
<path d="M0 0 C3.37462715 0.54723683 5.08235 1.0549 8 3 C5 4 5 4 2 3 C1.01 3.495 1.01 3.495 0 4 C0 2.68 0 1.36 0 0 Z " fill="#060F1C" transform="translate(83,104)"/>
<path d="M0 0 C0.33 0.66 0.66 1.32 1 2 C1.66 2.33 2.32 2.66 3 3 C-1.75 6 -1.75 6 -4 6 C-3.67 5.01 -3.34 4.02 -3 3 C-2.34 3 -1.68 3 -1 3 C-0.67 2.01 -0.34 1.02 0 0 Z " fill="#223340" transform="translate(108,18)"/>
<path d="M0 0 C-3.6441774 2.4294516 -5.71241272 2.16179575 -10 2 C-6.80505194 -1.19494806 -4.22040044 -1.35655728 0 0 Z " fill="#4E535C" transform="translate(137,6)"/>
<path d="" fill="#000000" transform="translate(0,0)"/>
</svg>
